<?xml version="1.0" encoding="UTF-8"?>
<svg width="700px" height="1000px" viewBox="0 0 700 1000" version="1.1" xmlns="http://www.w3.org/2000/svg" xmlns:xlink="http://www.w3.org/1999/xlink">
    <!-- Generator: Sketch 64 (93537) - https://sketch.com -->
    <title>Kiobo. Mobile App Interaction. Order</title>
    <desc>Created with Sketch.</desc>
    <style>
        @import url('https://fonts.googleapis.com/css2?family=Roboto:ital,wght@0,300;1,300&amp;display=swap');
    </style>
    <defs>
        <rect id="path-1" x="0" y="0" width="194" height="34" rx="10"></rect>
        <filter x="-3.6%" y="-14.7%" width="107.2%" height="141.2%" filterUnits="objectBoundingBox" id="filter-2">
            <feOffset dx="0" dy="2" in="SourceAlpha" result="shadowOffsetOuter1"></feOffset>
            <feGaussianBlur stdDeviation="2" in="shadowOffsetOuter1" result="shadowBlurOuter1"></feGaussianBlur>
            <feColorMatrix values="0 0 0 0 0   0 0 0 0 0   0 0 0 0 0  0 0 0 0.5 0" type="matrix" in="shadowBlurOuter1"></feColorMatrix>
        </filter>
        <rect id="path-3" x="0" y="0" width="205" height="34" rx="10"></rect>
        <filter x="-3.4%" y="-14.7%" width="106.8%" height="141.2%" filterUnits="objectBoundingBox" id="filter-4">
            <feOffset dx="0" dy="2" in="SourceAlpha" result="shadowOffsetOuter1"></feOffset>
            <feGaussianBlur stdDeviation="2" in="shadowOffsetOuter1" result="shadowBlurOuter1"></feGaussianBlur>
            <feColorMatrix values="0 0 0 0 0   0 0 0 0 0   0 0 0 0 0  0 0 0 0.5 0" type="matrix" in="shadowBlurOuter1"></feColorMatrix>
        </filter>
    </defs>
    <g id="Kiobo.-Mobile-App-Interaction.-Order" stroke="none" stroke-width="1" fill="none" fill-rule="evenodd">
        <rect fill="#FFFFFF" x="0" y="0" width="700" height="1000"></rect>
        <g id="Order" transform="translate(79.000000, 26.000000)">
            <g id="Mobile-App" transform="translate(8.000000, 57.000000)">
                <g id="Rectangle">
                    <use fill="black" fill-opacity="1" filter="url(#filter-2)" xlink:href="#path-1"></use>
                    <use fill="#A21964" fill-rule="evenodd" xlink:href="#path-1"></use>
                </g>
                <text font-family="Lato-Bold, Lato" font-size="16" font-weight="bold" fill="#FFFFFF">
                    <tspan x="55.824" y="23">Mobile App</tspan>
                </text>
                <line x1="97" y1="34" x2="96.5" y2="846.5" id="Line" stroke="#720F45" stroke-width="3" stroke-linecap="square"></line>
            </g>
            <g id="Kiobo" transform="translate(333.000000, 57.000000)">
                <line x1="102.5" y1="34.5" x2="102.5" y2="846.5" id="Line" stroke="#720F45" stroke-width="3" stroke-linecap="square"></line>
                <g id="Rectangle">
                    <use fill="black" fill-opacity="1" filter="url(#filter-4)" xlink:href="#path-3"></use>
                    <use fill="#A21964" fill-rule="evenodd" xlink:href="#path-3"></use>
                </g>
                <text id="Kiobo-API" font-family="Lato-Bold, Lato" font-size="16" font-weight="bold" fill="#FFFFFF">
                    <tspan x="66.196" y="23">Kiobo API</tspan>
                </text>
            </g>
            <g id="Order-Controller" transform="translate(25.000000, 126.000000)">
                <text id="Filling-a-basket" font-family="Roboto-Bold, Roboto" font-size="12" font-weight="bold" fill="#5D4040">
                    <tspan x="15.2734375" y="130">Filling a </tspan>
                    <tspan x="21.7597656" y="146">basket</tspan>
                </text>
                <rect id="Rectangle" fill="#A21964" x="70" y="0" width="20" height="292" rx="4"></rect>
                <text transform="translate(80.000000, 143.500000) rotate(-90.000000) translate(-80.000000, -143.500000) " font-family="Roboto-Bold, Roboto" font-size="10" font-weight="bold" fill="#FFFFFF">
                    <tspan x="44.1430664" y="147">Order Controller</tspan>
                </text>
                <g id="Create-order" transform="translate(90.000000, 0.000000)">
                    <text id="Create-order-if-no-o" font-family="Lato-Regular, Lato" font-size="16" font-weight="normal" fill="#720F45">
                        <tspan x="42" y="16">Create order if no open orders</tspan>
                    </text>
                    <text id="POST-/orders-[orderT" font-family="Roboto-Regular, Roboto" font-size="12" font-weight="normal">
                        <tspan x="42" y="43" fill="#3E7800">POST</tspan>
                        <tspan x="72.3808594" y="43" fill="#5D4040"> /orders    [orderType=DELIVERY]</tspan>
                    </text>
                    <text id="return-order-id-(uui" font-family="Roboto-Regular, Roboto" font-size="12" font-weight="normal" fill="#5D4040">
                        <tspan x="333" y="30">return order id (uuid)</tspan>
                    </text>
                    <path id="Request" d="M305.368686,18.8881632 L306.240261,19.3784245 L318.240261,26.1284245 L319.789729,27 L318.240261,27.8715755 L306.240261,34.6215755 L305.368686,35.1118368 L304.388163,33.3686857 L305.259739,32.8784245 L313.931,28 L-1,28 L-1,26 L313.934,26 L305.259739,21.1215755 L304.388163,20.6313143 L305.368686,18.8881632 Z" fill="#720F45" fill-rule="nonzero"></path>
                </g>
                <g id="Add-item-to-order" transform="translate(91.000000, 60.000000)">
                    <text font-family="Lato-Regular, Lato" font-size="16" font-weight="normal" fill="#720F45">
                        <tspan x="41" y="16">Add item to order</tspan>
                    </text>
                    <text id="POST-/orders/:orderI" font-family="Roboto-Regular, Roboto" font-size="12" font-weight="normal">
                        <tspan x="41" y="43" fill="#3E7800">POST</tspan>
                        <tspan x="71.3808594" y="43" fill="#5D4040"> /orders/:orderId/items</tspan>
                    </text>
                    <text id="return-UpdatedOrder" font-family="Roboto-Regular, Roboto" font-size="12" font-weight="normal" fill="#5D4040">
                        <tspan x="332" y="30">return </tspan>
                        <tspan x="367.232422" y="30" font-family="Roboto-Italic, Roboto" font-style="italic">UpdatedOrder</tspan>
                    </text>
                    <path id="Request" d="M304.368686,18.8881632 L305.240261,19.3784245 L317.240261,26.1284245 L318.789729,27 L317.240261,27.8715755 L305.240261,34.6215755 L304.368686,35.1118368 L303.388163,33.3686857 L304.259739,32.8784245 L312.931,28 L-1,28 L-1,26 L312.934,26 L304.259739,21.1215755 L303.388163,20.6313143 L304.368686,18.8881632 Z" fill="#720F45" fill-rule="nonzero"></path>
                </g>
                <g id="Add-item-to-order-2" transform="translate(91.000000, 120.000000)">
                    <text id="Add-item-to-order" font-family="Lato-Regular, Lato" font-size="16" font-weight="normal" fill="#720F45">
                        <tspan x="41" y="16">Add item to order</tspan>
                    </text>
                    <text id="POST-/orders/:orderI" font-family="Roboto-Regular, Roboto" font-size="12" font-weight="normal">
                        <tspan x="41" y="43" fill="#3E7800">POST</tspan>
                        <tspan x="71.3808594" y="43" fill="#5D4040"> /orders/:orderId/items</tspan>
                    </text>
                    <text id="return-UpdatedOrder" font-family="Roboto-Regular, Roboto" font-size="12" font-weight="normal" fill="#5D4040">
                        <tspan x="332" y="30">return </tspan>
                        <tspan x="367.232422" y="30" font-family="Roboto-Italic, Roboto" font-style="italic">UpdatedOrder</tspan>
                    </text>
                    <path id="Request" d="M304.368686,18.8881632 L305.240261,19.3784245 L317.240261,26.1284245 L318.789729,27 L317.240261,27.8715755 L305.240261,34.6215755 L304.368686,35.1118368 L303.388163,33.3686857 L304.259739,32.8784245 L312.931,28 L-1,28 L-1,26 L312.934,26 L304.259739,21.1215755 L303.388163,20.6313143 L304.368686,18.8881632 Z" fill="#720F45" fill-rule="nonzero"></path>
                </g>
                <g id="Update-order-item" transform="translate(91.000000, 180.000000)">
                    <text font-family="Lato-Regular, Lato" font-size="16" font-weight="normal" fill="#720F45">
                        <tspan x="41" y="16">Update order item</tspan>
                    </text>
                    <text id="PATCH-/orders/:order" font-family="Roboto-Regular, Roboto" font-size="12" font-weight="normal">
                        <tspan x="41" y="43" fill="#3E7800">PATCH</tspan>
                        <tspan x="78.4472656" y="43" fill="#5D4040"> /orders/:orderId/items</tspan>
                    </text>
                    <text id="return-UpdatedOrder" font-family="Roboto-Regular, Roboto" font-size="12" font-weight="normal" fill="#5D4040">
                        <tspan x="332" y="30">return </tspan>
                        <tspan x="367.232422" y="30" font-family="Roboto-Italic, Roboto" font-style="italic">UpdatedOrder</tspan>
                    </text>
                    <path id="Request" d="M304.368686,18.8881632 L305.240261,19.3784245 L317.240261,26.1284245 L318.789729,27 L317.240261,27.8715755 L305.240261,34.6215755 L304.368686,35.1118368 L303.388163,33.3686857 L304.259739,32.8784245 L312.931,28 L-1,28 L-1,26 L312.934,26 L304.259739,21.1215755 L303.388163,20.6313143 L304.368686,18.8881632 Z" fill="#720F45" fill-rule="nonzero"></path>
                </g>
                <g id="Update-order-item-Copy" transform="translate(91.000000, 240.000000)">
                    <text id="Remove-order-item" font-family="Lato-Regular, Lato" font-size="16" font-weight="normal" fill="#720F45">
                        <tspan x="41" y="16">Remove order item</tspan>
                    </text>
                    <text id="DELETE-/orders/:orde" font-family="Roboto-Regular, Roboto" font-size="12" font-weight="normal">
                        <tspan x="41" y="43" fill="#E02020">DELETE</tspan>
                        <tspan x="83.5742188" y="43" fill="#5D4040"> /orders/:orderId/items</tspan>
                    </text>
                    <text id="return-UpdatedOrder" font-family="Roboto-Regular, Roboto" font-size="12" font-weight="normal" fill="#5D4040">
                        <tspan x="332" y="30">return </tspan>
                        <tspan x="367.232422" y="30" font-family="Roboto-Italic, Roboto" font-style="italic">UpdatedOrder</tspan>
                    </text>
                    <path id="Request" d="M304.368686,18.8881632 L305.240261,19.3784245 L317.240261,26.1284245 L318.789729,27 L317.240261,27.8715755 L305.240261,34.6215755 L304.368686,35.1118368 L303.388163,33.3686857 L304.259739,32.8784245 L312.931,28 L-1,28 L-1,26 L312.934,26 L304.259739,21.1215755 L303.388163,20.6313143 L304.368686,18.8881632 Z" fill="#720F45" fill-rule="nonzero"></path>
                </g>
            </g>
            <g id="Order-Submit" transform="translate(25.000000, 446.000000)">
                <rect id="Rectangle-Copy" fill="#A21964" x="70" y="0" width="20" height="171" rx="4"></rect>
                <text id="Order-Controller" font-family="Roboto-Bold, Roboto" font-size="12" font-weight="bold" fill="#5D4040">
                    <tspan x="28.2753906" y="79">Order </tspan>
                    <tspan x="19.0644531" y="95">Submit</tspan>
                </text>
                <text id="Order-Controller" transform="translate(80.000000, 85.500000) rotate(-90.000000) translate(-80.000000, -85.500000) " font-family="Roboto-Bold, Roboto" font-size="10" font-weight="bold" fill="#FFFFFF">
                    <tspan x="44.2861328" y="89">Order Controller</tspan>
                </text>
                <g id="Set-delivery-options" transform="translate(90.000000, 0.000000)">
                    <text id="Set-delivery-address" font-family="Lato-Regular, Lato" font-size="16" font-weight="normal" fill="#720F45">
                        <tspan x="42" y="16">Set delivery address and options</tspan>
                    </text>
                    <text id="PATCH-/orders/:order" font-family="Roboto-Regular, Roboto" font-size="12" font-weight="normal">
                        <tspan x="42" y="43" fill="#3E7800">PATCH</tspan>
                        <tspan x="79.4472656" y="43" fill="#5D4040"> /orders/:orderId    [deliveryAddress={ .. }]</tspan>
                    </text>
                    <text id="return-UpdatedOrder" font-family="Roboto-Regular, Roboto" font-size="12" font-weight="normal" fill="#5D4040">
                        <tspan x="333" y="30">return </tspan>
                        <tspan x="368.232422" y="30" font-family="Roboto-Italic, Roboto" font-style="italic">UpdatedOrder</tspan>
                    </text>
                    <path id="Request" d="M305.368686,18.8881632 L306.240261,19.3784245 L318.240261,26.1284245 L319.789729,27 L318.240261,27.8715755 L306.240261,34.6215755 L305.368686,35.1118368 L304.388163,33.3686857 L305.259739,32.8784245 L313.931,28 L-1,28 L-1,26 L313.934,26 L305.259739,21.1215755 L304.388163,20.6313143 L305.368686,18.8881632 Z" fill="#720F45" fill-rule="nonzero"></path>
                </g>
                <g id="Make-payment" transform="translate(90.000000, 60.000000)">
                    <text font-family="Lato-Regular, Lato" font-size="16" font-weight="normal" fill="#720F45">
                        <tspan x="42" y="16">Make payment</tspan>
                    </text>
                    <text id="POST-/orders/:orderI" font-family="Roboto-Regular, Roboto" font-size="12" font-weight="normal">
                        <tspan x="42" y="43" fill="#3E7800">POST</tspan>
                        <tspan x="72.3808594" y="43" fill="#5D4040"> /orders/:orderId/payment  </tspan>
                    </text>
                    <text id="return-UpdatedOrder" font-family="Roboto-Regular, Roboto" font-size="12" font-weight="normal" fill="#5D4040">
                        <tspan x="333" y="30">return </tspan>
                        <tspan x="368.232422" y="30" font-family="Roboto-Italic, Roboto" font-style="italic">UpdatedOrder</tspan>
                    </text>
                    <path id="Request" d="M305.368686,18.8881632 L306.240261,19.3784245 L318.240261,26.1284245 L319.789729,27 L318.240261,27.8715755 L306.240261,34.6215755 L305.368686,35.1118368 L304.388163,33.3686857 L305.259739,32.8784245 L313.931,28 L-1,28 L-1,26 L313.934,26 L305.259739,21.1215755 L304.388163,20.6313143 L305.368686,18.8881632 Z" fill="#720F45" fill-rule="nonzero"></path>
                </g>
                <g id="Submit-order" transform="translate(90.000000, 120.000000)">
                    <text font-family="Lato-Regular, Lato" font-size="16" font-weight="normal" fill="#720F45">
                        <tspan x="42" y="16">Submit order</tspan>
                    </text>
                    <text id="PUT-/orders/:orderId" font-family="Roboto-Regular, Roboto" font-size="12" font-weight="normal">
                        <tspan x="42" y="43" fill="#3E7800">PUT</tspan>
                        <tspan x="64.8398438" y="43" fill="#5D4040"> /orders/:orderId/submit  </tspan>
                    </text>
                    <text id="return-UpdatedOrder" font-family="Roboto-Regular, Roboto" font-size="12" font-weight="normal" fill="#5D4040">
                        <tspan x="333" y="30">return </tspan>
                        <tspan x="368.232422" y="30" font-family="Roboto-Italic, Roboto" font-style="italic">UpdatedOrder</tspan>
                    </text>
                    <path id="Request" d="M305.368686,18.8881632 L306.240261,19.3784245 L318.240261,26.1284245 L319.789729,27 L318.240261,27.8715755 L306.240261,34.6215755 L305.368686,35.1118368 L304.388163,33.3686857 L305.259739,32.8784245 L313.931,28 L-1,28 L-1,26 L313.934,26 L305.259739,21.1215755 L304.388163,20.6313143 L305.368686,18.8881632 Z" fill="#720F45" fill-rule="nonzero"></path>
                </g>
            </g>
            <g id="Order-Post-Submit" transform="translate(0.000000, 646.000000)">
                <rect id="Rectangle-Copy" fill="#A21964" x="95" y="0" width="20" height="171" rx="4"></rect>
                <text id="Order-Controller" font-family="Roboto-Bold, Roboto" font-size="12" font-weight="bold" fill="#5D4040">
                    <tspan x="20.7148438" y="79">Order Post-</tspan>
                    <tspan x="44.0644531" y="95">Submit</tspan>
                </text>
                <text id="Order-Controller" transform="translate(105.000000, 85.500000) rotate(-90.000000) translate(-105.000000, -85.500000) " font-family="Roboto-Bold, Roboto" font-size="10" font-weight="bold" fill="#FFFFFF">
                    <tspan x="69.2861328" y="89">Order Controller</tspan>
                </text>
                <g id="Pull-order-status" transform="translate(115.000000, 0.000000)">
                    <text id="Pull-order-post-subm" font-family="Lato-Regular, Lato" font-size="16" font-weight="normal" fill="#720F45">
                        <tspan x="42" y="16">Pull order post-submit status</tspan>
                    </text>
                    <text id="GET-/orders/:orderId" font-family="Roboto-Regular, Roboto" font-size="12" font-weight="normal">
                        <tspan x="42" y="43" fill="#0091FF">GET</tspan>
                        <tspan x="64.3417969" y="43" fill="#5D4040"> /orders/:orderId   [ETag: version]</tspan>
                    </text>
                    <text id="return-Order-if-upda" font-family="Roboto-Regular, Roboto" font-size="12" font-weight="normal" fill="#5D4040">
                        <tspan x="333" y="30">return </tspan>
                        <tspan x="368.232422" y="30" font-family="Roboto-Italic, Roboto" font-style="italic">Order</tspan>
                        <tspan x="396.164062" y="30"> if updated</tspan>
                    </text>
                    <path id="Request" d="M305.368686,18.8881632 L306.240261,19.3784245 L318.240261,26.1284245 L319.789729,27 L318.240261,27.8715755 L306.240261,34.6215755 L305.368686,35.1118368 L304.388163,33.3686857 L305.259739,32.8784245 L313.931,28 L-1,28 L-1,26 L313.934,26 L305.259739,21.1215755 L304.388163,20.6313143 L305.368686,18.8881632 Z" fill="#720F45" fill-rule="nonzero"></path>
                </g>
                <g id="Pull-order-status-2" transform="translate(115.000000, 60.000000)">
                    <text id="Pull-order-post-subm" font-family="Lato-Regular, Lato" font-size="16" font-weight="normal" fill="#720F45">
                        <tspan x="42" y="16">Pull order post-submit status</tspan>
                    </text>
                    <text id="GET-/orders/:orderId" font-family="Roboto-Regular, Roboto" font-size="12" font-weight="normal">
                        <tspan x="42" y="43" fill="#0091FF">GET</tspan>
                        <tspan x="64.3417969" y="43" fill="#5D4040"> /orders/:orderId    [ETag: version]</tspan>
                    </text>
                    <text id="return-Order-if-upda" font-family="Roboto-Regular, Roboto" font-size="12" font-weight="normal" fill="#5D4040">
                        <tspan x="333" y="30">return </tspan>
                        <tspan x="368.232422" y="30" font-family="Roboto-Italic, Roboto" font-style="italic">Order</tspan>
                        <tspan x="396.164062" y="30"> if updated</tspan>
                    </text>
                    <path id="Request" d="M305.368686,18.8881632 L306.240261,19.3784245 L318.240261,26.1284245 L319.789729,27 L318.240261,27.8715755 L306.240261,34.6215755 L305.368686,35.1118368 L304.388163,33.3686857 L305.259739,32.8784245 L313.931,28 L-1,28 L-1,26 L313.934,26 L305.259739,21.1215755 L304.388163,20.6313143 L305.368686,18.8881632 Z" fill="#720F45" fill-rule="nonzero"></path>
                </g>
                <g id="Pull-order-status-3" transform="translate(115.000000, 120.000000)">
                    <text id="Pull-order-post-subm" font-family="Lato-Regular, Lato" font-size="16" font-weight="normal" fill="#720F45">
                        <tspan x="42" y="16">Pull order post-submit status</tspan>
                    </text>
                    <text id="GET-/orders/:orderId" font-family="Roboto-Regular, Roboto" font-size="12" font-weight="normal">
                        <tspan x="42" y="43" fill="#0091FF">GET</tspan>
                        <tspan x="64.3417969" y="43" fill="#5D4040"> /orders/:orderId   [ETag: version]</tspan>
                    </text>
                    <text id="return-Order-if-upda" font-family="Roboto-Regular, Roboto" font-size="12" font-weight="normal" fill="#5D4040">
                        <tspan x="333" y="30">return </tspan>
                        <tspan x="368.232422" y="30" font-family="Roboto-Italic, Roboto" font-style="italic">Order</tspan>
                        <tspan x="396.164062" y="30"> if updated</tspan>
                    </text>
                    <path id="Request" d="M305.368686,18.8881632 L306.240261,19.3784245 L318.240261,26.1284245 L319.789729,27 L318.240261,27.8715755 L306.240261,34.6215755 L305.368686,35.1118368 L304.388163,33.3686857 L305.259739,32.8784245 L313.931,28 L-1,28 L-1,26 L313.934,26 L305.259739,21.1215755 L304.388163,20.6313143 L305.368686,18.8881632 Z" fill="#720F45" fill-rule="nonzero"></path>
                </g>
            </g>
            <text font-family="Lato-Bold, Lato" font-size="22" font-weight="bold" fill="#5D4040">
                <tspan x="243.0315" y="22">Order</tspan>
            </text>
        </g>
    </g>
</svg>